REM DIRINDEX 1\2\5,1\2\6,1\2\7,1\2\8,1\3\9,1\3\10,1\3\11,1\4\12,1\4\13,1\4\14,1\4\15,1\4\16
REM DIRNAME cjc034,folder01,folder02,folder03,folder04,folder05,folder06,folder07,folder08,folder09,folder10,folder11,folder12,folder13,folder14,folder15
TITLE ""
FILE "1200_sec01_0161_0168.mp3" MP3
  TRACK 01 AUDIO
    TITLE "0:"
    INDEX 01 00:00:00
  TRACK 02 AUDIO
    TITLE "12:cjc034_04271"
    INDEX 01 00:00:23
  TRACK 03 AUDIO
    TITLE "0:"
    INDEX 01 00:01:36
  TRACK 04 AUDIO
    TITLE "13:cjc034_04272"
    INDEX 01 00:01:71
  TRACK 05 AUDIO
    TITLE "0:"
    INDEX 01 00:04:03
  TRACK 06 AUDIO
    TITLE "14:cjc034_04273"
    INDEX 01 00:04:42
  TRACK 07 AUDIO
    TITLE "0:"
    INDEX 01 00:05:57
  TRACK 08 AUDIO
    TITLE "15:cjc034_04274"
    INDEX 01 00:06:16
  TRACK 09 AUDIO
    TITLE "0:"
    INDEX 01 00:09:20
  TRACK 10 AUDIO
    TITLE "12:cjc034_04275"
    INDEX 01 00:10:55
  TRACK 11 AUDIO
    TITLE "0:"
    INDEX 01 00:11:72
  TRACK 12 AUDIO
    TITLE "13:cjc034_04276"
    INDEX 01 00:12:28
  TRACK 13 AUDIO
    TITLE "0:"
    INDEX 01 00:17:33
  TRACK 14 AUDIO
    TITLE "14:cjc034_04277"
    INDEX 01 00:17:67
  TRACK 15 AUDIO
    TITLE "0:"
    INDEX 01 00:19:09
  TRACK 16 AUDIO
    TITLE "15:cjc034_04278"
    INDEX 01 00:19:40
  TRACK 17 AUDIO
    TITLE "0:"
    INDEX 01 00:23:08
  TRACK 18 AUDIO
    TITLE "16:cjc034_04279"
    INDEX 01 00:24:39
  TRACK 19 AUDIO
    TITLE "0:"
    INDEX 01 00:26:15
  TRACK 20 AUDIO
    TITLE "12:cjc034_04280"
    INDEX 01 00:27:18
  TRACK 21 AUDIO
    TITLE "0:"
    INDEX 01 00:28:39
  TRACK 22 AUDIO
    TITLE "13:cjc034_04281"
    INDEX 01 00:28:70
  TRACK 23 AUDIO
    TITLE "0:"
    INDEX 01 00:31:08
  TRACK 24 AUDIO
    TITLE "14:cjc034_04282"
    INDEX 01 00:31:43
  TRACK 25 AUDIO
    TITLE "0:"
    INDEX 01 00:32:66
  TRACK 26 AUDIO
    TITLE "15:cjc034_04283"
    INDEX 01 00:33:22
  TRACK 27 AUDIO
    TITLE "0:"
    INDEX 01 00:36:23
  TRACK 28 AUDIO
    TITLE "12:cjc034_04284"
    INDEX 01 00:37:57
  TRACK 29 AUDIO
    TITLE "0:"
    INDEX 01 00:38:69
  TRACK 30 AUDIO
    TITLE "13:cjc034_04285"
    INDEX 01 00:39:29
  TRACK 31 AUDIO
    TITLE "0:"
    INDEX 01 00:40:36
  TRACK 32 AUDIO
    TITLE "14:cjc034_04286"
    INDEX 01 00:40:68
  TRACK 33 AUDIO
    TITLE "0:"
    INDEX 01 00:42:06
  TRACK 34 AUDIO
    TITLE "15:cjc034_04287"
    INDEX 01 00:42:41
  TRACK 35 AUDIO
    TITLE "0:"
    INDEX 01 00:45:57
  TRACK 36 AUDIO
    TITLE "12:cjc034_04288"
    INDEX 01 00:47:23
  TRACK 37 AUDIO
    TITLE "0:"
    INDEX 01 00:48:32
  TRACK 38 AUDIO
    TITLE "13:cjc034_04289"
    INDEX 01 00:48:65
  TRACK 39 AUDIO
    TITLE "0:"
    INDEX 01 00:50:15
  TRACK 40 AUDIO
    TITLE "14:cjc034_04290"
    INDEX 01 00:50:58
  TRACK 41 AUDIO
    TITLE "0:"
    INDEX 01 00:51:67
  TRACK 42 AUDIO
    TITLE "15:cjc034_04291"
    INDEX 01 00:52:26
  TRACK 43 AUDIO
    TITLE "0:"
    INDEX 01 00:56:12
  TRACK 44 AUDIO
    TITLE "12:cjc034_04292"
    INDEX 01 00:57:46
  TRACK 45 AUDIO
    TITLE "0:"
    INDEX 01 00:58:71
  TRACK 46 AUDIO
    TITLE "13:cjc034_04293"
    INDEX 01 00:59:28
  TRACK 47 AUDIO
    TITLE "0:"
    INDEX 01 01:00:60
  TRACK 48 AUDIO
    TITLE "14:cjc034_04294"
    INDEX 01 01:01:21
  TRACK 49 AUDIO
    TITLE "0:"
    INDEX 01 01:02:42
  TRACK 50 AUDIO
    TITLE "15:cjc034_04295"
    INDEX 01 01:03:02
  TRACK 51 AUDIO
    TITLE "0:"
    INDEX 01 01:06:53
  TRACK 52 AUDIO
    TITLE "12:cjc034_04296"
    INDEX 01 01:08:23
  TRACK 53 AUDIO
    TITLE "0:"
    INDEX 01 01:09:42
  TRACK 54 AUDIO
    TITLE "13:cjc034_04297"
    INDEX 01 01:10:02
  TRACK 55 AUDIO
    TITLE "0:"
    INDEX 01 01:11:27
  TRACK 56 AUDIO
    TITLE "14:cjc034_04298"
    INDEX 01 01:11:68
  TRACK 57 AUDIO
    TITLE "0:"
    INDEX 01 01:13:14
  TRACK 58 AUDIO
    TITLE "15:cjc034_04299"
    INDEX 01 01:13:47
  TRACK 59 AUDIO
    TITLE "0:"
    INDEX 01 01:17:39
  TRACK 60 AUDIO
    TITLE "12:cjc034_04300"
    INDEX 01 01:18:74
  TRACK 61 AUDIO
    TITLE "0:"
    INDEX 01 01:20:12
  TRACK 62 AUDIO
    TITLE "13:cjc034_04301"
    INDEX 01 01:20:44
  TRACK 63 AUDIO
    TITLE "0:"
    INDEX 01 01:21:57
  TRACK 64 AUDIO
    TITLE "14:cjc034_04302"
    INDEX 01 01:22:15
  TRACK 65 AUDIO
    TITLE "0:"
    INDEX 01 01:23:26
  TRACK 66 AUDIO
    TITLE "15:cjc034_04303"
    INDEX 01 01:23:60
  TRACK 67 AUDIO
    TITLE "0:"
    INDEX 01 01:26:44
